# xmcd
#
# Track frame offsets: 
#        150
#        16635
#        26923
#        41534
#        53465
#        66814
#        76515
#        90202
#        98157
#        108787
#        120462
#        134850
#        153220
#        167898
#
# Disc length: 2365 seconds
#
# Revision: 0
# Processed by: cddbd v1.5.2PL0 Copyright (c) Steve Scherf et al.
# Submitted via: ExactAudioCopy v1.0b1
#
DISCID=9a093b0e
DTITLE=Various Artist - Country Greats
DYEAR=1900
DGENRE=Country
TTITLE0=A Boy Named Sue - (Silverstein) Int. Johnny Cash
TTITLE1=Pride Wins Again - (Nelson) Int. Willie Nelson
TTITLE2=Both Sides Now - (Mitchell) Int. Ane Murray
TTITLE3=Take These Chains From My Heart - (Heath-Rose) Int. Roy Drusky
TTITLE4=Patches - (Dunbar-Johnson) Int. Alabama
TTITLE5=Let The Jukebox Keep On Playing - (Perkins) Int. Carl Perkins
TTITLE6=Canadian Pacific - (Griff) Int. George Hamilton Iv
TTITLE7=Jambalaya - (Williams) Int. George Jones
TTITLE8=Love Is Like A Butterfly - (Parton) Int. Dolly Parton
TTITLE9=As Usual - (Zanelis) Int. Brenda Lee
TTITLE10=Don't Know Why I Love You - (Gayntner-Guidry) Int. Charlie Pr
TTITLE10=ide
TTITLE11=I Believe In You - (Cook-Hogin) Int. Don Williams)
TTITLE12=Country Roads - (Danoff-Denver) Int. John Denver
TTITLE13=Sticks and Stones - (crawford) Int. Donna Fargo
EXTD=
EXTT0=
EXTT1=
EXTT2=
EXTT3=
EXTT4=
EXTT5=
EXTT6=
EXTT7=
EXTT8=
EXTT9=
EXTT10=
EXTT11=
EXTT12=
EXTT13=
PLAYORDER=
